{
  "asset": { "version": "2.0", "generator": "Hyge R-103 fixture" },
  "buffers": [{
    "byteLength": 102,
    "uri": "data:application/octet-stream;base64,"
  }],
  "bufferViews": [
    { "buffer": 0, "byteOffset": 0, "byteLength": 36, "target": 34962 },
    { "buffer": 0, "byteOffset": 36, "byteLength": 36, "target": 34962 },
    { "buffer": 0, "byteOffset": 72, "byteLength": 24, "target": 34962 },
    { "buffer": 0, "byteOffset": 96, "byteLength": 6, "target": 34963 }
  ],
  "accessors": [
    { "bufferView": 0, "componentType": 5126, "count": 3, "type": "VEC3", "min": [-1, -1, 0], "max": [1, 1, 0] },
    { "bufferView": 1, "componentType": 5126, "count": 3, "type": "VEC3" },
    { "bufferView": 2, "componentType": 5126, "count": 3, "type": "VEC2" },
    { "bufferView": 3, "componentType": 5123, "count": 3, "type": "SCALAR" }
  ],
  "materials": [{
    "name": "R103 Red",
    "pbrMetallicRoughness": { "baseColorFactor": [0.9, 0.12, 0.06, 1.0], "metallicFactor": 0.0, "roughnessFactor": 0.65 }
  }],
  "meshes": [{ "name": "R103 Triangle", "primitives": [{ "attributes": { "POSITION": 0, "NORMAL": 1, "TEXCOORD_0": 2 }, "indices": 3, "material": 0 }] }],
  "nodes": [{ "mesh": 0 }],
  "scenes": [{ "nodes": [0] }],
  "scene": 0
}
